# xmcd
#
# Track frame offsets: 
#        150
#        11193
#        26458
#        40840
#        54100
#        66913
#        78670
#        97323
#        112040
#        127408
#        146450
#        166930
#
# Disc length: 2499 seconds
#
# Revision: 0
# Processed by: cddbd v1.5.2PL0 Copyright (c) Steve Scherf et al.
# Submitted via: ExactAudioCopy v0.99pb4
#
DISCID=a909c10c
DTITLE=Various Artist - Legends
DYEAR=1986
DGENRE=Country
TTITLE0=Conway Twitty - Hello Darlin'
TTITLE1=John Conlee - Rose Colored Glasses
TTITLE2=Don Williams - Tulsa Time
TTITLE3=Merle Haggard - The Way I Am
TTITLE4=Conway Twitty - Tight Fittin' Jeans
TTITLE5=John Conlee - Backside of Thirty
TTITLE6=Don Williams - I Believe in You
TTITLE7=Merle Haggard - If We're Not Back in Love By Monday
TTITLE8=John Conlee - As Long as I'm Rockin' With You
TTITLE9=Don Williams - Good Ole Boys Like Me
TTITLE10=Merle Haggard - I Think I'll Just Stay Here and Drink
TTITLE11=Conway Twitty - Red Neckin' Love Makin' Night
EXTD=
EXTT0=
EXTT1=
EXTT2=
EXTT3=
EXTT4=
EXTT5=
EXTT6=
EXTT7=
EXTT8=
EXTT9=
EXTT10=
EXTT11=
PLAYORDER=
